<svg width="110" height="157" viewBox="0 0 110 157" fill="none" xmlns="http://www.w3.org/2000/svg">
<g filter="url(#filter0_d_1_288)">
<rect x="24" y="24" width="50.0001" height="97" rx="15" fill="white"/>
</g>
<path d="M45.582 66H42.2812V55.4922L39.0391 56.4395V53.9395L45.2793 51.7812H45.582V66ZM57.1641 66H53.8633V55.4922L50.6211 56.4395V53.9395L56.8613 51.7812H57.1641V66ZM40.8555 86.7168H41.4414V92H40.8555V87.6885L40.8262 87.6787L38.0039 92H37.4229V86.7168H38.0039V91.0283L38.0332 91.0381L40.8555 86.7168ZM43.6582 89.124H45.1719C45.2012 88.3883 45.4274 87.7878 45.8506 87.3223C46.2738 86.8535 46.8239 86.6191 47.501 86.6191C48.2074 86.6191 48.7738 86.8682 49.2002 87.3662C49.6266 87.8643 49.8398 88.5023 49.8398 89.2803V89.4414C49.8398 90.2227 49.6266 90.8623 49.2002 91.3604C48.777 91.8551 48.2139 92.1025 47.5107 92.1025C46.8304 92.1025 46.2786 91.873 45.8555 91.4141C45.4323 90.9551 45.2044 90.3561 45.1719 89.6172H43.6582V92H43.0723V86.7168H43.6582V89.124ZM45.7529 89.4414C45.7529 90.0534 45.9076 90.5677 46.2168 90.9844C46.526 91.401 46.9574 91.6094 47.5107 91.6094C48.0544 91.6094 48.4808 91.401 48.79 90.9844C49.1025 90.5677 49.2588 90.0534 49.2588 89.4414V89.2803C49.2588 88.6781 49.1025 88.167 48.79 87.7471C48.4775 87.3271 48.0479 87.1172 47.501 87.1172C46.9541 87.1172 46.526 87.3271 46.2168 87.7471C45.9076 88.167 45.7529 88.6781 45.7529 89.2803V89.4414ZM55.1377 86.7168V92H54.5518V87.2197H52.3154V89.0508C52.3154 90.0859 52.1934 90.8363 51.9492 91.3018C51.7083 91.7673 51.3014 92 50.7285 92H50.5186L50.5283 91.4775L50.709 91.4727C51.0671 91.4727 51.3258 91.2936 51.4854 90.9355C51.6481 90.5742 51.7295 89.946 51.7295 89.0508V86.7168H55.1377ZM60.5625 86.7168V92H59.9766V89.8711H58.3359L57.0469 92H56.4023L57.7305 89.7979C57.3659 89.7035 57.0843 89.5228 56.8857 89.2559C56.6872 88.9889 56.5879 88.6683 56.5879 88.2939C56.5879 87.8317 56.7539 87.4541 57.0859 87.1611C57.4212 86.8649 57.8867 86.7168 58.4824 86.7168H60.5625ZM57.1738 88.3037C57.1738 88.6032 57.2699 88.8571 57.4619 89.0654C57.654 89.2705 57.9421 89.373 58.3262 89.373H59.9766V87.2148H58.4824C58.0462 87.2148 57.7191 87.3206 57.501 87.5322C57.2829 87.7406 57.1738 87.9977 57.1738 88.3037Z" fill="#292D32"/>
<defs>
<filter id="filter0_d_1_288" x="0" y="0" width="110" height="157" filterUnits="userSpaceOnUse" color-interpolation-filters="sRGB">
<feFlood flood-opacity="0" result="BackgroundImageFix"/>
<feColorMatrix in="SourceAlpha" type="matrix" values="0 0 0 0 0 0 0 0 0 0 0 0 0 0 0 0 0 0 127 0" result="hardAlpha"/>
<feOffset dx="6" dy="6"/>
<feGaussianBlur stdDeviation="15"/>
<feComposite in2="hardAlpha" operator="out"/>
<feColorMatrix type="matrix" values="0 0 0 0 0 0 0 0 0 0 0 0 0 0 0 0 0 0 0.06 0"/>
<feBlend mode="normal" in2="BackgroundImageFix" result="effect1_dropShadow_1_288"/>
<feBlend mode="normal" in="SourceGraphic" in2="effect1_dropShadow_1_288" result="shape"/>
</filter>
</defs>
</svg>
