<svg width="436" height="73" viewBox="0 0 436 73" fill="none" xmlns="http://www.w3.org/2000/svg">
<path d="M178 13H415C426.045 13 435 21.9543 435 32.9999L435 51.9999C435 63.0456 426.046 72 415 72H21.0001C9.95441 72 1.00014 63.0457 1.00011 52.0001L1.00005 29.7042C1.00002 20.3407 8.59068 12.75 17.9542 12.75V12.75" stroke="#F2F2F2" stroke-opacity="0.5" stroke-width="1.5"/>
<path d="M39.2983 20H38.2524V14.1113H30.9751V20H29.9292V7.20312H30.9751V13.2148H38.2524V7.20312H39.2983V20ZM41.7769 15.1045C41.7769 13.7041 42.1606 12.5557 42.9282 11.6592C43.6958 10.7627 44.7124 10.3145 45.978 10.3145C47.2495 10.3145 48.269 10.7627 49.0366 11.6592C49.8042 12.5557 50.188 13.7041 50.188 15.1045V15.3945C50.188 16.8008 49.8042 17.9521 49.0366 18.8486C48.2749 19.7393 47.2612 20.1846 45.9956 20.1846C44.7183 20.1846 43.6958 19.7393 42.9282 18.8486C42.1606 17.9521 41.7769 16.8008 41.7769 15.3945V15.1045ZM42.8315 15.3945C42.8315 16.4961 43.1099 17.4219 43.6665 18.1719C44.2231 18.9219 44.9995 19.2969 45.9956 19.2969C46.9741 19.2969 47.7417 18.9219 48.2983 18.1719C48.8608 17.4219 49.1421 16.4961 49.1421 15.3945V15.1045C49.1421 14.0205 48.8608 13.1006 48.2983 12.3447C47.7358 11.5889 46.9624 11.2109 45.978 11.2109C44.9937 11.2109 44.2231 11.5889 43.6665 12.3447C43.1099 13.1006 42.8315 14.0205 42.8315 15.1045V15.3945ZM57.606 18.5234H57.6587L61.4116 10.4902H62.7124V20H61.6577V12.3184L61.605 12.3096L58.0015 20H57.2544L53.5806 12.1338L53.5278 12.1426V20H52.4819V10.4902H53.8618L57.606 18.5234ZM69.1196 20.1846C67.9302 20.1846 66.9399 19.7451 66.1489 18.8662C65.3638 17.9873 64.9712 16.874 64.9712 15.5264V15.043C64.9712 13.6836 65.3608 12.5557 66.1401 11.6592C66.9253 10.7627 67.8745 10.3145 68.9878 10.3145C70.1538 10.3145 71.0708 10.6836 71.7388 11.4219C72.4067 12.1602 72.7407 13.1445 72.7407 14.375V15.2715H66.0259V15.5264C66.0259 16.5986 66.3101 17.4951 66.8784 18.2158C67.4468 18.9365 68.1938 19.2969 69.1196 19.2969C69.7759 19.2969 70.3354 19.2061 70.7983 19.0244C71.2612 18.8428 71.6567 18.582 71.9849 18.2422L72.4331 18.9629C72.0757 19.3379 71.6216 19.6367 71.0708 19.8594C70.5259 20.0762 69.8755 20.1846 69.1196 20.1846ZM68.9878 11.2109C68.2085 11.2109 67.5552 11.5098 67.0278 12.1074C66.5005 12.6992 66.1929 13.4434 66.105 14.3398L66.1226 14.3838H71.6948V14.1201C71.6948 13.2939 71.4517 12.6025 70.9653 12.0459C70.479 11.4893 69.8198 11.2109 68.9878 11.2109ZM82.4878 15.5088C82.4878 16.9326 82.1655 18.0693 81.521 18.9189C80.8765 19.7627 79.9888 20.1846 78.8579 20.1846C78.1899 20.1846 77.604 20.0586 77.1001 19.8066C76.6021 19.5547 76.1948 19.1943 75.8784 18.7256V23.6562H74.8237V10.4902H75.7114L75.8433 11.9668C76.1597 11.4395 76.5669 11.0322 77.0649 10.7451C77.5688 10.458 78.1606 10.3145 78.8403 10.3145C79.9829 10.3145 80.8765 10.7715 81.521 11.6855C82.1655 12.5938 82.4878 13.8066 82.4878 15.3242V15.5088ZM81.4331 15.3242C81.4331 14.1172 81.1929 13.1328 80.7124 12.3711C80.2319 11.6094 79.5288 11.2285 78.603 11.2285C77.894 11.2285 77.3169 11.3984 76.8716 11.7383C76.4321 12.0723 76.1011 12.5088 75.8784 13.0479V17.6182C76.1187 18.1396 76.4644 18.5498 76.9155 18.8486C77.3726 19.1475 77.9409 19.2969 78.6206 19.2969C79.5405 19.2969 80.2378 18.9512 80.7124 18.2598C81.1929 17.5684 81.4331 16.6514 81.4331 15.5088V15.3242ZM96.1108 11.3867H92.6479V20H91.6021V11.3867H88.2622V10.4902H96.1108V11.3867ZM101.34 20.1846C100.151 20.1846 99.1606 19.7451 98.3696 18.8662C97.5845 17.9873 97.1919 16.874 97.1919 15.5264V15.043C97.1919 13.6836 97.5815 12.5557 98.3608 11.6592C99.146 10.7627 100.095 10.3145 101.208 10.3145C102.375 10.3145 103.292 10.6836 103.959 11.4219C104.627 12.1602 104.961 13.1445 104.961 14.375V15.2715H98.2466V15.5264C98.2466 16.5986 98.5308 17.4951 99.0991 18.2158C99.6675 18.9365 100.415 19.2969 101.34 19.2969C101.997 19.2969 102.556 19.2061 103.019 19.0244C103.482 18.8428 103.877 18.582 104.206 18.2422L104.654 18.9629C104.296 19.3379 103.842 19.6367 103.292 19.8594C102.747 20.0762 102.096 20.1846 101.34 20.1846ZM101.208 11.2109C100.429 11.2109 99.7759 11.5098 99.2485 12.1074C98.7212 12.6992 98.4136 13.4434 98.3257 14.3398L98.3433 14.3838H103.916V14.1201C103.916 13.2939 103.672 12.6025 103.186 12.0459C102.7 11.4893 102.041 11.2109 101.208 11.2109ZM114.348 10.4902V20H113.293V11.3955H109.268V14.6914C109.268 16.5547 109.048 17.9053 108.609 18.7432C108.175 19.5811 107.443 20 106.412 20H106.034L106.051 19.0596L106.376 19.0508C107.021 19.0508 107.487 18.7285 107.774 18.084C108.067 17.4336 108.213 16.3027 108.213 14.6914V10.4902H114.348ZM120.764 20.1846C119.575 20.1846 118.584 19.7451 117.793 18.8662C117.008 17.9873 116.616 16.874 116.616 15.5264V15.043C116.616 13.6836 117.005 12.5557 117.785 11.6592C118.57 10.7627 119.519 10.3145 120.632 10.3145C121.798 10.3145 122.715 10.6836 123.383 11.4219C124.051 12.1602 124.385 13.1445 124.385 14.375V15.2715H117.67V15.5264C117.67 16.5986 117.955 17.4951 118.523 18.2158C119.091 18.9365 119.838 19.2969 120.764 19.2969C121.42 19.2969 121.98 19.2061 122.443 19.0244C122.906 18.8428 123.301 18.582 123.629 18.2422L124.078 18.9629C123.72 19.3379 123.266 19.6367 122.715 19.8594C122.17 20.0762 121.52 20.1846 120.764 20.1846ZM120.632 11.2109C119.853 11.2109 119.2 11.5098 118.672 12.1074C118.145 12.6992 117.837 13.4434 117.75 14.3398L117.767 14.3838H123.339V14.1201C123.339 13.2939 123.096 12.6025 122.61 12.0459C122.124 11.4893 121.464 11.2109 120.632 11.2109ZM126.064 15.3242C126.064 13.8008 126.363 12.585 126.96 11.6768C127.558 10.7686 128.402 10.3145 129.492 10.3145C129.802 10.3145 130.089 10.3525 130.353 10.4287C130.617 10.499 130.851 10.5986 131.056 10.7275V6.28906H132.102V10.7627C132.307 10.6221 132.544 10.5137 132.814 10.4375C133.083 10.3555 133.385 10.3145 133.719 10.3145C134.803 10.3145 135.647 10.7686 136.25 11.6768C136.854 12.585 137.156 13.8008 137.156 15.3242V15.5088C137.156 16.9326 136.854 18.0693 136.25 18.9189C135.653 19.7627 134.815 20.1846 133.737 20.1846C133.403 20.1846 133.098 20.1494 132.823 20.0791C132.553 20.0088 132.313 19.9062 132.102 19.7715V23.6562H131.056V19.7803C130.839 19.9092 130.599 20.0088 130.335 20.0791C130.078 20.1494 129.791 20.1846 129.474 20.1846C128.396 20.1846 127.558 19.7627 126.96 18.9189C126.363 18.0693 126.064 16.9326 126.064 15.5088V15.3242ZM136.11 15.3242C136.11 14.1113 135.887 13.124 135.442 12.3623C135.002 11.5947 134.352 11.2109 133.491 11.2109C133.168 11.2109 132.893 11.2461 132.665 11.3164C132.436 11.3867 132.249 11.4805 132.102 11.5977V18.9541C132.266 19.0596 132.462 19.1445 132.691 19.209C132.925 19.2676 133.198 19.2969 133.508 19.2969C134.37 19.2969 135.017 18.9541 135.451 18.2686C135.89 17.5771 136.11 16.6572 136.11 15.5088V15.3242ZM127.119 15.5088C127.119 16.6631 127.33 17.583 127.751 18.2686C128.173 18.9541 128.815 19.2969 129.676 19.2969C129.969 19.2969 130.23 19.2646 130.458 19.2002C130.687 19.1357 130.886 19.0479 131.056 18.9365V11.5713C130.898 11.4658 130.708 11.3809 130.485 11.3164C130.262 11.2461 129.999 11.2109 129.694 11.2109C128.827 11.2109 128.179 11.5918 127.751 12.3535C127.33 13.1152 127.119 14.1055 127.119 15.3242V15.5088ZM138.931 15.1045C138.931 13.7041 139.315 12.5557 140.083 11.6592C140.85 10.7627 141.867 10.3145 143.132 10.3145C144.404 10.3145 145.423 10.7627 146.191 11.6592C146.958 12.5557 147.342 13.7041 147.342 15.1045V15.3945C147.342 16.8008 146.958 17.9521 146.191 18.8486C145.429 19.7393 144.416 20.1846 143.15 20.1846C141.873 20.1846 140.85 19.7393 140.083 18.8486C139.315 17.9521 138.931 16.8008 138.931 15.3945V15.1045ZM139.986 15.3945C139.986 16.4961 140.264 17.4219 140.821 18.1719C141.377 18.9219 142.154 19.2969 143.15 19.2969C144.128 19.2969 144.896 18.9219 145.453 18.1719C146.015 17.4219 146.296 16.4961 146.296 15.3945V15.1045C146.296 14.0205 146.015 13.1006 145.453 12.3447C144.89 11.5889 144.117 11.2109 143.132 11.2109C142.148 11.2109 141.377 11.5889 140.821 12.3447C140.264 13.1006 139.986 14.0205 139.986 15.1045V15.3945ZM156.826 20H155.771V15.6406H150.647V20H149.592V10.4902H150.647V14.7529H155.771V10.4902H156.826V20ZM165.685 20C165.615 19.6777 165.565 19.3994 165.536 19.165C165.506 18.9307 165.492 18.6934 165.492 18.4531C165.14 18.9512 164.671 19.3643 164.085 19.6924C163.5 20.0205 162.84 20.1846 162.108 20.1846C161.182 20.1846 160.461 19.9385 159.946 19.4463C159.436 18.9541 159.181 18.2949 159.181 17.4688C159.181 16.5898 159.559 15.8867 160.315 15.3594C161.077 14.832 162.102 14.5684 163.391 14.5684H165.492V13.3906C165.492 12.7109 165.272 12.1777 164.833 11.791C164.399 11.4043 163.79 11.2109 163.004 11.2109C162.272 11.2109 161.663 11.3955 161.176 11.7646C160.696 12.1338 160.456 12.585 160.456 13.1182L159.489 13.1094L159.471 13.0566C159.436 12.3477 159.758 11.7148 160.438 11.1582C161.124 10.5957 161.994 10.3145 163.048 10.3145C164.097 10.3145 164.941 10.5811 165.58 11.1143C166.218 11.6475 166.538 12.4121 166.538 13.4082V18.084C166.538 18.418 166.555 18.7432 166.59 19.0596C166.631 19.376 166.696 19.6895 166.784 20H165.685ZM162.231 19.2529C162.987 19.2529 163.655 19.0771 164.235 18.7256C164.815 18.3682 165.234 17.9141 165.492 17.3633V15.377H163.374C162.418 15.377 161.654 15.582 161.08 15.9922C160.511 16.3965 160.227 16.9004 160.227 17.5039C160.227 18.0195 160.403 18.4414 160.754 18.7695C161.112 19.0918 161.604 19.2529 162.231 19.2529Z" fill="#F2F2F2"/>
</svg>
