<svg width="436" height="73" viewBox="0 0 436 73" fill="none" xmlns="http://www.w3.org/2000/svg">
<path d="M116 12.75H415C426.045 12.75 435 21.7043 435 32.75L435 52C435 63.0457 426.045 72 415 72H21C9.95431 72 1 63.0457 1 52V28.4222C1 19.7667 8.01669 12.75 16.6722 12.75V12.75" stroke="#F2F2F2" stroke-opacity="0.5" stroke-width="1.5"/>
<path d="M25.6787 20V7.20312H29.4141C30.7441 7.20312 31.7783 7.48438 32.5166 8.04688C33.2607 8.60352 33.6328 9.44434 33.6328 10.5693C33.6328 11.2256 33.4453 11.7969 33.0703 12.2832C32.7012 12.7695 32.1973 13.1064 31.5586 13.2939C32.3379 13.4346 32.9707 13.8008 33.457 14.3926C33.9434 14.9844 34.1865 15.667 34.1865 16.4404C34.1865 17.583 33.8145 18.4619 33.0703 19.0771C32.332 19.6924 31.3418 20 30.0996 20H25.6787ZM26.7246 13.8301V19.1123H30.0996C31.043 19.1123 31.7842 18.8809 32.3232 18.418C32.8623 17.9492 33.1318 17.2959 33.1318 16.458C33.1318 15.6904 32.8857 15.0605 32.3936 14.5684C31.9072 14.0762 31.1982 13.8301 30.2666 13.8301H26.7246ZM26.7246 12.9424H29.6689C30.5947 12.9424 31.3096 12.7402 31.8135 12.3359C32.3232 11.9258 32.5781 11.3252 32.5781 10.5342C32.5781 9.72559 32.3086 9.11914 31.7695 8.71484C31.2305 8.30469 30.4453 8.09961 29.4141 8.09961H26.7246V12.9424ZM42.5713 20C42.501 19.6777 42.4512 19.3994 42.4219 19.165C42.3926 18.9307 42.3779 18.6934 42.3779 18.4531C42.0264 18.9512 41.5576 19.3643 40.9717 19.6924C40.3857 20.0205 39.7266 20.1846 38.9941 20.1846C38.0684 20.1846 37.3477 19.9385 36.832 19.4463C36.3223 18.9541 36.0674 18.2949 36.0674 17.4688C36.0674 16.5898 36.4453 15.8867 37.2012 15.3594C37.9629 14.832 38.9883 14.5684 40.2773 14.5684H42.3779V13.3906C42.3779 12.7109 42.1582 12.1777 41.7188 11.791C41.2852 11.4043 40.6758 11.2109 39.8906 11.2109C39.1582 11.2109 38.5488 11.3955 38.0625 11.7646C37.582 12.1338 37.3418 12.585 37.3418 13.1182L36.375 13.1094L36.3574 13.0566C36.3223 12.3477 36.6445 11.7148 37.3242 11.1582C38.0098 10.5957 38.8799 10.3145 39.9346 10.3145C40.9834 10.3145 41.8271 10.5811 42.4658 11.1143C43.1045 11.6475 43.4238 12.4121 43.4238 13.4082V18.084C43.4238 18.418 43.4414 18.7432 43.4766 19.0596C43.5176 19.376 43.582 19.6895 43.6699 20H42.5713ZM39.1172 19.2529C39.873 19.2529 40.541 19.0771 41.1211 18.7256C41.7012 18.3682 42.1201 17.9141 42.3779 17.3633V15.377H40.2598C39.3047 15.377 38.54 15.582 37.9658 15.9922C37.3975 16.3965 37.1133 16.9004 37.1133 17.5039C37.1133 18.0195 37.2891 18.4414 37.6406 18.7695C37.998 19.0918 38.4902 19.2529 39.1172 19.2529ZM47.3438 10.4902V19.1123H51.5713V10.4902H52.626V19.1123H56.8184V10.4902H57.873V20H46.2891V10.4902H47.3438ZM64.0957 20.1846C62.9062 20.1846 61.916 19.7451 61.125 18.8662C60.3398 17.9873 59.9473 16.874 59.9473 15.5264V15.043C59.9473 13.6836 60.3369 12.5557 61.1162 11.6592C61.9014 10.7627 62.8506 10.3145 63.9639 10.3145C65.1299 10.3145 66.0469 10.6836 66.7148 11.4219C67.3828 12.1602 67.7168 13.1445 67.7168 14.375V15.2715H61.002V15.5264C61.002 16.5986 61.2861 17.4951 61.8545 18.2158C62.4229 18.9365 63.1699 19.2969 64.0957 19.2969C64.752 19.2969 65.3115 19.2061 65.7744 19.0244C66.2373 18.8428 66.6328 18.582 66.9609 18.2422L67.4092 18.9629C67.0518 19.3379 66.5977 19.6367 66.0469 19.8594C65.502 20.0762 64.8516 20.1846 64.0957 20.1846ZM63.9639 11.2109C63.1846 11.2109 62.5312 11.5098 62.0039 12.1074C61.4766 12.6992 61.1689 13.4434 61.0811 14.3398L61.0986 14.3838H66.6709V14.1201C66.6709 13.2939 66.4277 12.6025 65.9414 12.0459C65.4551 11.4893 64.7959 11.2109 63.9639 11.2109ZM80.417 10.4902H81.4717V20H80.417V12.2393L80.3643 12.2217L75.2842 20H74.2383V10.4902H75.2842V18.251L75.3369 18.2686L80.417 10.4902ZM89.5312 18.5234H89.584L93.3369 10.4902H94.6377V20H93.583V12.3184L93.5303 12.3096L89.9268 20H89.1797L85.5059 12.1338L85.4531 12.1426V20H84.4072V10.4902H85.7871L89.5312 18.5234ZM104.394 10.4902V20H103.339V16.168H100.386L98.0654 20H96.9053L99.2959 16.0361C98.6396 15.8662 98.1328 15.541 97.7754 15.0605C97.418 14.5801 97.2393 14.0029 97.2393 13.3291C97.2393 12.4971 97.5381 11.8174 98.1357 11.29C98.7393 10.7568 99.5771 10.4902 100.649 10.4902H104.394ZM98.2939 13.3467C98.2939 13.8857 98.4668 14.3428 98.8125 14.7178C99.1582 15.0869 99.6768 15.2715 100.368 15.2715H103.339V11.3867H100.649C99.8643 11.3867 99.2754 11.5771 98.8828 11.958C98.4902 12.333 98.2939 12.7959 98.2939 13.3467Z" fill="#F2F2F2"/>
</svg>
