<svg width="436" height="159" viewBox="0 0 436 159" fill="none" xmlns="http://www.w3.org/2000/svg">
<path d="M153 13H415C426.045 13 435 21.9543 435 33L435 138C435 149.046 426.046 158 415 158H21.0002C9.95447 158 1.0002 149.046 1.00019 138L1.00006 29.7043C1.00005 20.3407 8.59072 12.75 17.9543 12.75V12.75" stroke="#F2F2F2" stroke-opacity="0.5" stroke-width="1.5"/>
<path d="M32.4824 13.9795H30.7246V20H29.6787V7.20312H30.7246V13.0918H32.4736L37.5098 7.20312H38.6963L38.7139 7.24707L33.4229 13.4961L39.0918 19.9561L39.0742 20H37.8262L32.4824 13.9795ZM40.0498 15.1045C40.0498 13.7041 40.4336 12.5557 41.2012 11.6592C41.9688 10.7627 42.9854 10.3145 44.251 10.3145C45.5225 10.3145 46.542 10.7627 47.3096 11.6592C48.0771 12.5557 48.4609 13.7041 48.4609 15.1045V15.3945C48.4609 16.8008 48.0771 17.9521 47.3096 18.8486C46.5479 19.7393 45.5342 20.1846 44.2686 20.1846C42.9912 20.1846 41.9688 19.7393 41.2012 18.8486C40.4336 17.9521 40.0498 16.8008 40.0498 15.3945V15.1045ZM41.1045 15.3945C41.1045 16.4961 41.3828 17.4219 41.9395 18.1719C42.4961 18.9219 43.2725 19.2969 44.2686 19.2969C45.2471 19.2969 46.0146 18.9219 46.5713 18.1719C47.1338 17.4219 47.415 16.4961 47.415 15.3945V15.1045C47.415 14.0205 47.1338 13.1006 46.5713 12.3447C46.0088 11.5889 45.2354 11.2109 44.251 11.2109C43.2666 11.2109 42.4961 11.5889 41.9395 12.3447C41.3828 13.1006 41.1045 14.0205 41.1045 15.1045V15.3945ZM55.8789 18.5234H55.9316L59.6846 10.4902H60.9854V20H59.9307V12.3184L59.8779 12.3096L56.2744 20H55.5273L51.8535 12.1338L51.8008 12.1426V20H50.7549V10.4902H52.1348L55.8789 18.5234ZM69.0449 18.5234H69.0977L72.8506 10.4902H74.1514V20H73.0967V12.3184L73.0439 12.3096L69.4404 20H68.6934L65.0195 12.1338L64.9668 12.1426V20H63.9209V10.4902H65.3008L69.0449 18.5234ZM80.5586 20.1846C79.3691 20.1846 78.3789 19.7451 77.5879 18.8662C76.8027 17.9873 76.4102 16.874 76.4102 15.5264V15.043C76.4102 13.6836 76.7998 12.5557 77.5791 11.6592C78.3643 10.7627 79.3135 10.3145 80.4268 10.3145C81.5928 10.3145 82.5098 10.6836 83.1777 11.4219C83.8457 12.1602 84.1797 13.1445 84.1797 14.375V15.2715H77.4648V15.5264C77.4648 16.5986 77.749 17.4951 78.3174 18.2158C78.8857 18.9365 79.6328 19.2969 80.5586 19.2969C81.2148 19.2969 81.7744 19.2061 82.2373 19.0244C82.7002 18.8428 83.0957 18.582 83.4238 18.2422L83.8721 18.9629C83.5146 19.3379 83.0605 19.6367 82.5098 19.8594C81.9648 20.0762 81.3145 20.1846 80.5586 20.1846ZM80.4268 11.2109C79.6475 11.2109 78.9941 11.5098 78.4668 12.1074C77.9395 12.6992 77.6318 13.4434 77.5439 14.3398L77.5615 14.3838H83.1338V14.1201C83.1338 13.2939 82.8906 12.6025 82.4043 12.0459C81.918 11.4893 81.2588 11.2109 80.4268 11.2109ZM93.5576 20H92.5029V15.6406H87.3789V20H86.3242V10.4902H87.3789V14.7529H92.5029V10.4902H93.5576V20ZM103.278 11.3867H99.8154V20H98.7695V11.3867H95.4297V10.4902H103.278V11.3867ZM110.978 20C110.907 19.6777 110.857 19.3994 110.828 19.165C110.799 18.9307 110.784 18.6934 110.784 18.4531C110.433 18.9512 109.964 19.3643 109.378 19.6924C108.792 20.0205 108.133 20.1846 107.4 20.1846C106.475 20.1846 105.754 19.9385 105.238 19.4463C104.729 18.9541 104.474 18.2949 104.474 17.4688C104.474 16.5898 104.852 15.8867 105.607 15.3594C106.369 14.832 107.395 14.5684 108.684 14.5684H110.784V13.3906C110.784 12.7109 110.564 12.1777 110.125 11.791C109.691 11.4043 109.082 11.2109 108.297 11.2109C107.564 11.2109 106.955 11.3955 106.469 11.7646C105.988 12.1338 105.748 12.585 105.748 13.1182L104.781 13.1094L104.764 13.0566C104.729 12.3477 105.051 11.7148 105.73 11.1582C106.416 10.5957 107.286 10.3145 108.341 10.3145C109.39 10.3145 110.233 10.5811 110.872 11.1143C111.511 11.6475 111.83 12.4121 111.83 13.4082V18.084C111.83 18.418 111.848 18.7432 111.883 19.0596C111.924 19.376 111.988 19.6895 112.076 20H110.978ZM107.523 19.2529C108.279 19.2529 108.947 19.0771 109.527 18.7256C110.107 18.3682 110.526 17.9141 110.784 17.3633V15.377H108.666C107.711 15.377 106.946 15.582 106.372 15.9922C105.804 16.3965 105.52 16.9004 105.52 17.5039C105.52 18.0195 105.695 18.4414 106.047 18.7695C106.404 19.0918 106.896 19.2529 107.523 19.2529ZM122.298 15.5088C122.298 16.9326 121.976 18.0693 121.331 18.9189C120.687 19.7627 119.799 20.1846 118.668 20.1846C118 20.1846 117.414 20.0586 116.91 19.8066C116.412 19.5547 116.005 19.1943 115.688 18.7256V23.6562H114.634V10.4902H115.521L115.653 11.9668C115.97 11.4395 116.377 11.0322 116.875 10.7451C117.379 10.458 117.971 10.3145 118.65 10.3145C119.793 10.3145 120.687 10.7715 121.331 11.6855C121.976 12.5938 122.298 13.8066 122.298 15.3242V15.5088ZM121.243 15.3242C121.243 14.1172 121.003 13.1328 120.522 12.3711C120.042 11.6094 119.339 11.2285 118.413 11.2285C117.704 11.2285 117.127 11.3984 116.682 11.7383C116.242 12.0723 115.911 12.5088 115.688 13.0479V17.6182C115.929 18.1396 116.274 18.5498 116.726 18.8486C117.183 19.1475 117.751 19.2969 118.431 19.2969C119.351 19.2969 120.048 18.9512 120.522 18.2598C121.003 17.5684 121.243 16.6514 121.243 15.5088V15.3242ZM130.894 10.4902H131.948V20H130.894V12.2393L130.841 12.2217L125.761 20H124.715V10.4902H125.761V18.251L125.813 18.2686L130.894 10.4902ZM141.019 10.4902H142.073V20H141.019V12.2393L140.966 12.2217L135.886 20H134.84V10.4902H135.886V18.251L135.938 18.2686L141.019 10.4902ZM140.896 6.71973L140.913 6.77246C140.937 7.42871 140.723 7.96191 140.271 8.37207C139.82 8.78223 139.205 8.9873 138.426 8.9873C137.646 8.9873 137.028 8.78223 136.571 8.37207C136.12 7.95605 135.909 7.42285 135.938 6.77246L135.956 6.71973H136.782C136.782 7.1709 136.914 7.53418 137.178 7.80957C137.441 8.08496 137.857 8.22266 138.426 8.22266C138.977 8.22266 139.387 8.08203 139.656 7.80078C139.932 7.51953 140.069 7.15918 140.069 6.71973H140.896Z" fill="#F2F2F2"/>
</svg>
